<svg width="84" height="42" viewBox="0 0 84 42" fill="none" xmlns="http://www.w3.org/2000/svg">
<path d="M6.73242 0.924081C6.73242 0.448254 7.17084 0.0933708 7.63623 0.192485L24.8403 3.85644C25.1856 3.92998 25.4325 4.23497 25.4325 4.58804V36.4438C25.4325 36.9299 24.9761 37.2869 24.5043 37.1698L7.30024 32.8997C6.96665 32.8169 6.73242 32.5175 6.73242 32.1738V0.924081Z" fill="url(#paint0_linear)"/>
<path d="M0 5.41236C0 4.93654 0.438422 4.58165 0.903811 4.68077L18.1079 8.34472C18.4532 8.41826 18.7001 8.72325 18.7001 9.07632V40.9321C18.7001 41.4182 18.2437 41.7751 17.7719 41.658L0.567816 37.388C0.23423 37.3052 0 37.0058 0 36.662V5.41236Z" fill="url(#paint1_linear)"/>
<path d="M35.3926 13.1603V9.51599H37.3853C38.8035 9.51599 39.4318 10.1982 39.4318 11.3471C39.4318 12.4601 38.8035 13.1603 37.3853 13.1603H35.3926ZM42.0169 11.3471C42.0169 9.1749 40.5089 7.46946 37.493 7.46946H32.8793V20H35.3926V15.1888H37.493C40.7244 15.1888 42.0169 13.25 42.0169 11.3471ZM53.1903 10.0546H50.659V15.5299C50.659 17.1277 49.7973 17.9894 48.433 17.9894C47.1045 17.9894 46.2249 17.1277 46.2249 15.5299V10.0546H43.7116V15.889C43.7116 18.6177 45.3811 20.1257 47.6969 20.1257C48.9356 20.1257 50.0307 19.5871 50.659 18.7434V20H53.1903V10.0546ZM58.1833 15.0452C58.1833 13.1244 59.0809 12.5499 60.5709 12.5499H61.2352V9.91094C59.8529 9.91094 58.8116 10.5752 58.1833 11.5984V10.0546H55.67V20H58.1833V15.0452ZM70.6474 17.1636C70.5756 13.5193 65.0643 14.6503 65.0643 12.8371C65.0643 12.2627 65.549 11.8857 66.4825 11.8857C67.4699 11.8857 68.0802 12.4063 68.152 13.1782H70.5576C70.414 11.2035 68.9599 9.89299 66.5543 9.89299C64.0949 9.89299 62.6228 11.2214 62.6228 12.873C62.6228 16.5173 68.2418 15.3863 68.2418 17.1636C68.2418 17.738 67.7032 18.1868 66.7159 18.1868C65.7106 18.1868 65.0104 17.6124 64.9207 16.8584H62.3894C62.4971 18.7075 64.2385 20.1616 66.7338 20.1616C69.1574 20.1616 70.6474 18.869 70.6474 17.1636ZM76.9831 11.9575C78.2756 11.9575 79.3168 12.7833 79.3527 14.0938H74.6313C74.8288 12.7294 75.7803 11.9575 76.9831 11.9575ZM81.7045 16.8763H78.9937C78.6706 17.5406 78.0781 18.0791 77.001 18.0791C75.7444 18.0791 74.7391 17.2533 74.6134 15.7813H81.884C81.9378 15.4581 81.9558 15.135 81.9558 14.8119C81.9558 11.8498 79.9272 9.89299 77.0549 9.89299C74.1107 9.89299 72.0642 11.8857 72.0642 15.0273C72.0642 18.1509 74.1646 20.1616 77.0549 20.1616C79.5143 20.1616 81.1659 18.7075 81.7045 16.8763ZM32.61 31.7168C32.61 35.4688 35.1772 38.1257 38.624 38.1257C41.5502 38.1257 43.5069 36.6536 44.4045 34.3019H43.471C42.7709 36.133 41.1373 37.4076 38.624 37.4076C35.7337 37.4076 33.4358 35.2354 33.4358 31.7168C33.4358 28.1443 35.7337 25.9901 38.624 25.9901C41.1373 25.9901 42.7709 27.2647 43.471 29.0958H44.4045C43.5069 26.7441 41.5502 25.272 38.624 25.272C35.1772 25.272 32.61 27.9289 32.61 31.7168ZM46.9274 38H47.7352V24.7155H46.9274V38ZM58.9366 28.252H58.1288V33.4761C58.1288 36.1868 56.6926 37.4614 54.664 37.4614C52.7072 37.4614 51.3967 36.2586 51.3967 33.871V28.252H50.6068V33.9249C50.6068 36.869 52.3841 38.1616 54.5563 38.1616C56.154 38.1616 57.5722 37.4076 58.1288 35.8817V38H58.9366V28.252ZM62.6894 30.8192V24.7155H61.8816V38H62.6894V35.4508C63.228 36.9408 64.6821 38.1436 66.8184 38.1436C69.5471 38.1436 71.5218 36.1868 71.5218 33.117C71.5218 30.0293 69.5471 28.1264 66.8184 28.1264C64.7001 28.1264 63.2639 29.3112 62.6894 30.8192ZM70.6961 33.117C70.6961 35.8098 69.0624 37.4255 66.6927 37.4255C64.4308 37.4255 62.6894 35.756 62.6894 33.117C62.6894 30.514 64.4308 28.8265 66.6927 28.8265C69.0624 28.8265 70.6961 30.4242 70.6961 33.117Z" fill="black"/>
<defs>
<linearGradient id="paint0_linear" x1="25.4325" y1="3.83669" x2="7.70716" y2="32.6934" gradientUnits="userSpaceOnUse">
<stop stop-color="#474747"/>
<stop offset="1"/>
</linearGradient>
<linearGradient id="paint1_linear" x1="18.7001" y1="10.0167" x2="-0.428558" y2="35.6553" gradientUnits="userSpaceOnUse">
<stop stop-color="#474747"/>
<stop offset="1"/>
</linearGradient>
</defs>
</svg>
