<svg width="306" height="292" viewBox="0 0 306 292" fill="none" xmlns="http://www.w3.org/2000/svg">
<path d="M14.05 80H25.3V56.24C25.3 49.04 30.16 47.78 32.77 47.78C35.38 47.78 40.42 49.04 40.42 56.24V80H51.67V56.24C51.67 49.04 56.62 47.78 59.14 47.78C61.75 47.78 66.88 49.04 66.88 56.24V80H78.13V54.71C78.13 41.75 69.94 37.97 62.65 37.97C58.06 37.97 52.57 39.5 49.06 44.27C46.09 39.59 41.05 37.97 36.28 37.97C32.5 37.97 28.36 39.41 25.3 42.74V38.6H14.05V80ZM104.254 80.9C116.854 80.9 125.584 71.63 125.584 59.3C125.584 46.79 116.854 37.79 104.254 37.79C91.7439 37.79 82.9239 46.79 82.9239 59.3C82.9239 71.63 91.7439 80.9 104.254 80.9ZM104.254 70.1C98.1339 70.1 93.9939 65.51 93.9939 59.3C93.9939 53.09 98.1339 48.5 104.254 48.5C110.464 48.5 114.514 53.09 114.514 59.3C114.514 65.51 110.464 70.1 104.254 70.1ZM148.426 80.72C153.646 80.72 157.516 78.83 160.306 75.68V80H171.556V21.5H160.306V43.01C157.516 39.86 153.646 37.97 148.426 37.97C137.086 37.97 128.806 46.79 128.806 59.3C128.806 71.63 137.086 80.72 148.426 80.72ZM150.046 70.1C143.836 70.1 139.696 65.51 139.696 59.3C139.696 53.09 143.836 48.5 150.046 48.5C156.256 48.5 160.306 53.09 160.306 59.3C160.306 65.51 156.256 70.1 150.046 70.1ZM197.419 80.9C204.979 80.9 211.279 77.66 214.879 72.44L207.229 66.86C205.789 68.75 202.909 71.27 197.419 71.27C192.289 71.27 188.239 67.94 187.159 62.36H216.859V59.3C216.859 46.97 209.299 37.79 196.969 37.79C184.459 37.79 176.359 46.97 176.359 59.3C176.359 71.63 184.729 80.9 197.419 80.9ZM187.339 55.25C188.419 50.03 191.839 46.7 196.969 46.7C202.279 46.7 205.339 50.39 206.329 55.25H187.339ZM221.662 80H232.912V61.01C232.912 49.22 243.442 48.59 247.492 48.5V37.97C242.002 38.06 236.422 40.4 232.912 46.07V38.6H221.662V80ZM251.109 80H262.359V56.42C262.359 49.13 267.309 47.42 270.549 47.42C273.699 47.42 278.829 49.13 278.829 56.42V80H290.079V54.71C290.079 42.02 281.439 37.97 273.969 37.97C269.919 37.97 265.509 39.14 262.359 42.56V38.6H251.109V80ZM16.75 148H28V115.15H37.36V106.6H28V103.54C28 100.03 29.89 98.23 33.4 98.23H38.35V89.5H29.89C21.16 89.5 16.75 94.18 16.75 102.91V106.6H11.35V115.15H16.75V148ZM57.456 148.72C62.676 148.72 66.546 146.83 69.336 143.68V148H80.586V106.6H69.336V111.01C66.546 107.86 62.676 105.97 57.456 105.97C46.116 105.97 37.836 114.79 37.836 127.3C37.836 139.63 46.116 148.72 57.456 148.72ZM59.076 138.1C52.866 138.1 48.726 133.51 48.726 127.3C48.726 121.09 52.866 116.5 59.076 116.5C65.286 116.5 69.336 121.09 69.336 127.3C69.336 133.51 65.286 138.1 59.076 138.1ZM103.028 149.26C113.648 149.26 120.128 144.67 120.128 135.94C120.128 127.03 108.878 124.15 105.638 123.07C102.398 121.99 97.2684 121.09 97.2684 117.76C97.2684 115.69 98.8884 114.25 102.578 114.25C106.988 114.25 111.488 117.13 112.748 119.11L120.038 114.43C117.968 109.93 111.938 105.7 102.938 105.7C94.0284 105.7 86.2884 109.48 86.2884 118.3C86.2884 127.39 97.3584 130 100.598 131.08C103.838 132.16 109.148 133.06 109.148 136.39C109.148 139.09 107.078 140.26 103.208 140.26C97.9884 140.26 93.1284 136.48 92.1384 134.14L84.4884 139.27C86.5584 144.31 92.8584 149.26 103.028 149.26ZM138.774 148H146.244V139.27H143.454C140.844 139.27 137.874 139.09 137.874 134.23V115.15H146.694V106.6H137.874V93.91H126.624V106.6H121.224V115.15H126.624V136.03C126.624 143.68 130.494 148 138.774 148ZM16.75 216H28V183.15H37.36V174.6H28V171.54C28 168.03 29.89 166.23 33.4 166.23H38.35V157.5H29.89C21.16 157.5 16.75 162.18 16.75 170.91V174.6H11.35V183.15H16.75V216ZM58.1148 216.72C62.1648 216.72 66.4848 215.55 69.6348 212.22V216H80.8848V174.6H69.6348V198.18C69.6348 205.47 64.7748 207.18 61.5348 207.18C58.2948 207.18 53.1648 205.47 53.1648 198.18V174.6H41.9148V199.98C41.9148 212.67 50.6448 216.72 58.1148 216.72ZM87.182 216H98.432V192.42C98.432 185.13 103.382 183.42 106.622 183.42C109.772 183.42 114.902 185.13 114.902 192.42V216H126.152V190.71C126.152 178.02 117.512 173.97 110.042 173.97C105.992 173.97 101.582 175.14 98.432 178.56V174.6H87.182V216ZM30.16 285.26C40.78 285.26 47.26 280.67 47.26 271.94C47.26 263.03 36.01 260.15 32.77 259.07C29.53 257.99 24.4 257.09 24.4 253.76C24.4 251.69 26.02 250.25 29.71 250.25C34.12 250.25 38.62 253.13 39.88 255.11L47.17 250.43C45.1 245.93 39.07 241.7 30.07 241.7C21.16 241.7 13.42 245.48 13.42 254.3C13.42 263.39 24.49 266 27.73 267.08C30.97 268.16 36.28 269.06 36.28 272.39C36.28 275.09 34.21 276.26 30.34 276.26C25.12 276.26 20.26 272.48 19.27 270.14L11.62 275.27C13.69 280.31 19.99 285.26 30.16 285.26ZM70.5855 284.9C78.1455 284.9 84.4455 281.66 88.0455 276.44L80.3955 270.86C78.9555 272.75 76.0755 275.27 70.5855 275.27C65.4555 275.27 61.4055 271.94 60.3255 266.36H90.0255V263.3C90.0255 250.97 82.4655 241.79 70.1355 241.79C57.6255 241.79 49.5255 250.97 49.5255 263.3C49.5255 275.63 57.8955 284.9 70.5855 284.9ZM60.5055 259.25C61.5855 254.03 65.0055 250.7 70.1355 250.7C75.4455 250.7 78.5055 254.39 79.4955 259.25H60.5055ZM114.449 284.81C121.739 284.81 127.679 281.57 131.279 276.35L123.269 270.32C121.739 272.21 119.309 274.1 114.719 274.1C108.509 274.1 104.279 269.51 104.279 263.3C104.279 257.09 108.509 252.5 114.719 252.5C119.309 252.5 121.829 254.75 123.269 256.46L131.279 250.25C127.679 245.12 121.739 241.88 114.449 241.88C101.939 241.88 93.2985 250.79 93.2985 263.3C93.2985 275.81 101.939 284.81 114.449 284.81ZM151.374 284.72C155.424 284.72 159.744 283.55 162.894 280.22V284H174.144V242.6H162.894V266.18C162.894 273.47 158.034 275.18 154.794 275.18C151.554 275.18 146.424 273.47 146.424 266.18V242.6H135.174V267.98C135.174 280.67 143.904 284.72 151.374 284.72ZM180.441 284H191.691V265.01C191.691 253.22 202.221 252.59 206.271 252.5V241.97C200.781 242.06 195.201 244.4 191.691 250.07V242.6H180.441V284ZM227.66 284.9C235.22 284.9 241.52 281.66 245.12 276.44L237.47 270.86C236.03 272.75 233.15 275.27 227.66 275.27C222.53 275.27 218.48 271.94 217.4 266.36H247.1V263.3C247.1 250.97 239.54 241.79 227.21 241.79C214.7 241.79 206.6 250.97 206.6 263.3C206.6 275.63 214.97 284.9 227.66 284.9ZM217.58 259.25C218.66 254.03 222.08 250.7 227.21 250.7C232.52 250.7 235.58 254.39 236.57 259.25H217.58Z" fill="white"/>
</svg>
