<svg width="329" height="431" viewBox="0 0 329 431" fill="none" xmlns="http://www.w3.org/2000/svg">
<path d="M4.5 100H17V73.6C17 65.6 22.4 64.2 25.3 64.2C28.2 64.2 33.8 65.6 33.8 73.6V100H46.3V73.6C46.3 65.6 51.8 64.2 54.6 64.2C57.5 64.2 63.2 65.6 63.2 73.6V100H75.7V71.9C75.7 57.5 66.6 53.3 58.5 53.3C53.4 53.3 47.3 55 43.4 60.3C40.1 55.1 34.5 53.3 29.2 53.3C25 53.3 20.4 54.9 17 58.6V54H4.5V100ZM104.727 101C118.727 101 128.427 90.7 128.427 77C128.427 63.1 118.727 53.1 104.727 53.1C90.8266 53.1 81.0266 63.1 81.0266 77C81.0266 90.7 90.8266 101 104.727 101ZM104.727 89C97.9266 89 93.3266 83.9 93.3266 77C93.3266 70.1 97.9266 65 104.727 65C111.627 65 116.127 70.1 116.127 77C116.127 83.9 111.627 89 104.727 89ZM153.807 100.8C159.607 100.8 163.907 98.7 167.007 95.2V100H179.507V35H167.007V58.9C163.907 55.4 159.607 53.3 153.807 53.3C141.207 53.3 132.007 63.1 132.007 77C132.007 90.7 141.207 100.8 153.807 100.8ZM155.607 89C148.707 89 144.107 83.9 144.107 77C144.107 70.1 148.707 65 155.607 65C162.507 65 167.007 70.1 167.007 77C167.007 83.9 162.507 89 155.607 89ZM208.243 101C216.643 101 223.643 97.4 227.643 91.6L219.143 85.4C217.543 87.5 214.343 90.3 208.243 90.3C202.543 90.3 198.043 86.6 196.843 80.4H229.843V77C229.843 63.3 221.443 53.1 207.743 53.1C193.843 53.1 184.843 63.3 184.843 77C184.843 90.7 194.143 101 208.243 101ZM197.043 72.5C198.243 66.7 202.043 63 207.743 63C213.643 63 217.043 67.1 218.143 72.5H197.043ZM235.18 100H247.68V78.9C247.68 65.8 259.38 65.1 263.88 65V53.3C257.78 53.4 251.58 56 247.68 62.3V54H235.18V100ZM267.898 100H280.398V73.8C280.398 65.7 285.898 63.8 289.498 63.8C292.998 63.8 298.698 65.7 298.698 73.8V100H311.198V71.9C311.198 57.8 301.598 53.3 293.298 53.3C288.798 53.3 283.898 54.6 280.398 58.4V54H267.898V100Z" fill="white"/>
<path d="M15.5 204H28V167.5H38.4V158H28V154.6C28 150.7 30.1 148.7 34 148.7H39.5V139H30.1C20.4 139 15.5 144.2 15.5 153.9V158H9.5V167.5H15.5V204ZM60.7289 204.8C66.5289 204.8 70.8289 202.7 73.9289 199.2V204H86.4289V158H73.9289V162.9C70.8289 159.4 66.5289 157.3 60.7289 157.3C48.1289 157.3 38.9289 167.1 38.9289 181C38.9289 194.7 48.1289 204.8 60.7289 204.8ZM62.5289 193C55.6289 193 51.0289 187.9 51.0289 181C51.0289 174.1 55.6289 169 62.5289 169C69.4289 169 73.9289 174.1 73.9289 181C73.9289 187.9 69.4289 193 62.5289 193ZM111.365 205.4C123.165 205.4 130.365 200.3 130.365 190.6C130.365 180.7 117.865 177.5 114.265 176.3C110.665 175.1 104.965 174.1 104.965 170.4C104.965 168.1 106.765 166.5 110.865 166.5C115.765 166.5 120.765 169.7 122.165 171.9L130.265 166.7C127.965 161.7 121.265 157 111.265 157C101.365 157 92.7648 161.2 92.7648 171C92.7648 181.1 105.065 184 108.665 185.2C112.265 186.4 118.165 187.4 118.165 191.1C118.165 194.1 115.865 195.4 111.565 195.4C105.765 195.4 100.365 191.2 99.2648 188.6L90.7648 194.3C93.0648 199.9 100.065 205.4 111.365 205.4ZM151.082 204H159.382V194.3H156.282C153.382 194.3 150.082 194.1 150.082 188.7V167.5H159.882V158H150.082V143.9H137.582V158H131.582V167.5H137.582V190.7C137.582 199.2 141.882 204 151.082 204Z" fill="white"/>
<path d="M15.5 308H28V271.5H38.4V262H28V258.6C28 254.7 30.1 252.7 34 252.7H39.5V243H30.1C20.4 243 15.5 248.2 15.5 257.9V262H9.5V271.5H15.5V308ZM61.4609 308.8C65.9609 308.8 70.7609 307.5 74.2609 303.8V308H86.7609V262H74.2609V288.2C74.2609 296.3 68.8609 298.2 65.2609 298.2C61.6609 298.2 55.9609 296.3 55.9609 288.2V262H43.4609V290.2C43.4609 304.3 53.1609 308.8 61.4609 308.8ZM93.7578 308H106.258V281.8C106.258 273.7 111.758 271.8 115.358 271.8C118.858 271.8 124.558 273.7 124.558 281.8V308H137.058V279.9C137.058 265.8 127.458 261.3 119.158 261.3C114.658 261.3 109.758 262.6 106.258 266.4V262H93.7578V308Z" fill="white"/>
<path d="M22.4 412.474C34.2 412.474 41.4 407.374 41.4 397.674C41.4 387.774 28.9 384.574 25.3 383.374C21.7 382.174 16 381.174 16 377.474C16 375.174 17.8 373.574 21.9 373.574C26.8 373.574 31.8 376.774 33.2 378.974L41.3 373.774C39 368.774 32.3 364.074 22.3 364.074C12.4 364.074 3.8 368.274 3.8 378.074C3.8 388.174 16.1 391.074 19.7 392.274C23.3 393.474 29.2 394.474 29.2 398.174C29.2 401.174 26.9 402.474 22.6 402.474C16.8 402.474 11.4 398.274 10.3 395.674L1.8 401.374C4.1 406.974 11.1 412.474 22.4 412.474ZM67.3172 412.074C75.7172 412.074 82.7172 408.474 86.7172 402.674L78.2172 396.474C76.6172 398.574 73.4172 401.374 67.3172 401.374C61.6172 401.374 57.1172 397.674 55.9172 391.474H88.9172V388.074C88.9172 374.374 80.5172 364.174 66.8172 364.174C52.9172 364.174 43.9172 374.374 43.9172 388.074C43.9172 401.774 53.2172 412.074 67.3172 412.074ZM56.1172 383.574C57.3172 377.774 61.1172 374.074 66.8172 374.074C72.7172 374.074 76.1172 378.174 77.2172 383.574H56.1172ZM116.054 411.974C124.154 411.974 130.754 408.374 134.754 402.574L125.854 395.874C124.154 397.974 121.454 400.074 116.354 400.074C109.454 400.074 104.754 394.974 104.754 388.074C104.754 381.174 109.454 376.074 116.354 376.074C121.454 376.074 124.254 378.574 125.854 380.474L134.754 373.574C130.754 367.874 124.154 364.274 116.054 364.274C102.154 364.274 92.5539 374.174 92.5539 388.074C92.5539 401.974 102.154 411.974 116.054 411.974ZM157.082 411.874C161.582 411.874 166.382 410.574 169.882 406.874V411.074H182.382V365.074H169.882V391.274C169.882 399.374 164.482 401.274 160.882 401.274C157.282 401.274 151.582 399.374 151.582 391.274V365.074H139.082V393.274C139.082 407.374 148.782 411.874 157.082 411.874ZM189.379 411.074H201.879V389.974C201.879 376.874 213.579 376.174 218.079 376.074V364.374C211.979 364.474 205.779 367.074 201.879 373.374V365.074H189.379V411.074ZM241.845 412.074C250.245 412.074 257.245 408.474 261.245 402.674L252.745 396.474C251.145 398.574 247.945 401.374 241.845 401.374C236.145 401.374 231.645 397.674 230.445 391.474H263.445V388.074C263.445 374.374 255.045 364.174 241.345 364.174C227.445 364.174 218.445 374.374 218.445 388.074C218.445 401.774 227.745 412.074 241.845 412.074ZM230.645 383.574C231.845 377.774 235.645 374.074 241.345 374.074C247.245 374.074 250.645 378.174 251.745 383.574H230.645Z" fill="white"/>
</svg>
