<svg width="102" height="52" viewBox="0 0 102 52" fill="none" xmlns="http://www.w3.org/2000/svg">
<path d="M8.16016 1.80003C8.16016 1.22327 8.69157 0.793108 9.25568 0.913246L30.109 5.35439C30.5276 5.44353 30.8268 5.81321 30.8268 6.24117V44.8541C30.8268 45.4433 30.2736 45.876 29.7018 45.734L8.84842 40.5583C8.44407 40.4579 8.16016 40.0949 8.16016 39.6783V1.80003Z" fill="url(#paint0_linear)"/>
<path d="M0 7.23997C0 6.66321 0.531418 6.23305 1.09552 6.35319L21.9489 10.7943C22.3674 10.8835 22.6667 11.2532 22.6667 11.6811V50.294C22.6667 50.8832 22.1135 51.3159 21.5416 51.174L0.688261 45.9982C0.283916 45.8978 0 45.5348 0 45.1182V7.23997Z" fill="url(#paint1_linear)"/>
<path d="M43.081 15.7094V11.2922H45.4964C47.2154 11.2922 47.977 12.119 47.977 13.5117C47.977 14.8608 47.2154 15.7094 45.4964 15.7094H43.081ZM51.1105 13.5117C51.1105 10.8787 49.2826 8.81152 45.627 8.81152H40.0346V24H43.081V18.1683H45.627C49.5438 18.1683 51.1105 15.8182 51.1105 13.5117ZM64.6539 11.945H61.5857V18.5818C61.5857 20.5184 60.5412 21.5629 58.8875 21.5629C57.2772 21.5629 56.211 20.5184 56.211 18.5818V11.945H53.1646V19.017C53.1646 22.3245 55.1883 24.1523 57.9953 24.1523C59.4968 24.1523 60.8241 23.4995 61.5857 22.4768V24H64.6539V11.945ZM70.706 17.9942C70.706 15.6659 71.794 14.9696 73.6001 14.9696H74.4052V11.7709C72.7297 11.7709 71.4676 12.576 70.706 13.8163V11.945H67.6596V24H70.706V17.9942ZM85.8139 20.5619C85.7269 16.1446 79.0466 17.5155 79.0466 15.3178C79.0466 14.6214 79.6341 14.1645 80.7656 14.1645C81.9624 14.1645 82.7023 14.7955 82.7893 15.7312H85.7051C85.5311 13.3376 83.7685 11.7491 80.8527 11.7491C77.8715 11.7491 76.0872 13.3594 76.0872 15.3613C76.0872 19.7786 82.8981 18.4077 82.8981 20.5619C82.8981 21.2582 82.2453 21.8022 81.0485 21.8022C79.8299 21.8022 78.9813 21.1059 78.8725 20.192H75.8043C75.9349 22.4333 78.0456 24.1958 81.0703 24.1958C84.0079 24.1958 85.8139 22.6291 85.8139 20.5619ZM93.4935 14.2515C95.0603 14.2515 96.3223 15.2525 96.3659 16.841H90.643C90.8823 15.1872 92.0356 14.2515 93.4935 14.2515ZM99.2164 20.2138H95.9307C95.539 21.0189 94.8209 21.6717 93.5153 21.6717C91.9921 21.6717 90.7735 20.6707 90.6212 18.8864H99.434C99.4993 18.4947 99.5211 18.103 99.5211 17.7114C99.5211 14.121 97.0622 11.7491 93.5806 11.7491C90.0119 11.7491 87.5313 14.1645 87.5313 17.9725C87.5313 21.7587 90.0772 24.1958 93.5806 24.1958C96.5617 24.1958 98.5636 22.4333 99.2164 20.2138ZM39.7082 38.384C39.7082 42.9318 42.8199 46.1523 46.9978 46.1523C50.5447 46.1523 52.9166 44.368 54.0046 41.5174H52.873C52.0244 43.737 50.0442 45.2819 46.9978 45.2819C43.4945 45.2819 40.7092 42.649 40.7092 38.384C40.7092 34.0538 43.4945 31.4426 46.9978 31.4426C50.0442 31.4426 52.0244 32.9875 52.873 35.207H54.0046C52.9166 32.3565 50.5447 30.5722 46.9978 30.5722C42.8199 30.5722 39.7082 33.7926 39.7082 38.384ZM57.0625 46H58.0417V29.8976H57.0625V46ZM71.6191 34.1843H70.6399V40.5165C70.6399 43.8022 68.8991 45.3472 66.4402 45.3472C64.0684 45.3472 62.4799 43.8893 62.4799 40.9952V34.1843H61.5225V41.0605C61.5225 44.6291 63.6767 46.1958 66.3097 46.1958C68.2463 46.1958 69.9654 45.2819 70.6399 43.4323V46H71.6191V34.1843ZM76.168 37.296V29.8976H75.1888V46H76.168V42.9101C76.8208 44.7162 78.5833 46.1741 81.1728 46.1741C84.4803 46.1741 86.8739 43.8022 86.8739 40.0813C86.8739 36.3386 84.4803 34.032 81.1728 34.032C78.6051 34.032 76.8643 35.4682 76.168 37.296ZM85.8729 40.0813C85.8729 43.3453 83.8928 45.3037 81.0205 45.3037C78.2787 45.3037 76.168 43.28 76.168 40.0813C76.168 36.9261 78.2787 34.8806 81.0205 34.8806C83.8928 34.8806 85.8729 36.8173 85.8729 40.0813Z" fill="white"/>
<defs>
<linearGradient id="paint0_linear" x1="30.8268" y1="5.33044" x2="9.34165" y2="40.3082" gradientUnits="userSpaceOnUse">
<stop stop-color="white"/>
<stop offset="1" stop-color="#C2C2C2"/>
</linearGradient>
<linearGradient id="paint1_linear" x1="22.6667" y1="12.821" x2="-0.519463" y2="43.8979" gradientUnits="userSpaceOnUse">
<stop stop-color="white"/>
<stop offset="1" stop-color="#C2C2C2"/>
</linearGradient>
</defs>
</svg>
